<?xml version="1.0" encoding="utf-8"?>
<!-- Generator: Adobe Illustrator 19.2.1, SVG Export Plug-In . SVG Version: 6.00 Build 0)  -->
<svg version="1.1" id="layer" xmlns="http://www.w3.org/2000/svg" xmlns:xlink="http://www.w3.org/1999/xlink" x="0px" y="0px"
	 viewBox="0 0 652 652" style="enable-background:new 0 0 652 652;" xml:space="preserve">
<style type="text/css">
	.st0{fill-rule:evenodd;clip-rule:evenodd;fill:#FFFFFF;}
	.st1{fill-rule:evenodd;clip-rule:evenodd;fill:#D9261C;}
	.st2{fill-rule:evenodd;clip-rule:evenodd;fill:#FFFFFF;}
</style>
<path class="st0" d="M76.7,358c0,1.3-1,1.6-1.4,1.9c-3.5,1.6-13.3,3.8-21.5,3.8c-26.1,0-32.9-12.9-32.9-40.3
	c0-27.5,6.8-40.4,32.9-40.4c8.2,0,18,2.2,21.5,3.8c0.4,0.3,1.4,0.6,1.4,1.9c0,0.3-0.1,0.6-0.1,0.7l-1,5c-0.3,1.2-0.7,1.7-1.7,1.7
	c-0.1,0-0.4-0.1-0.8-0.1c-2.9-0.9-11.3-3.5-18.7-3.5c-16.7,0-22,7.5-22,30.8c0,23.4,5.3,30.9,22,30.9c7.4,0,15.8-2.3,18.7-3.2
	c0.4,0,0.7-0.1,0.8-0.1c1,0,1.4,0.6,1.7,1.8l1,4.7C76.5,357.5,76.7,357.7,76.7,358"/>
<path class="st0" d="M121.4,292.4c-20.2,0-21.1,12.5-21.1,31.1c0,18.5,0.8,30.9,21.1,30.9c20.2,0,21.1-12.5,21.1-30.9
	C142.5,304.8,141.6,292.4,121.4,292.4 M121.4,363.7c-29.2,0-32.6-18.3-32.6-40.3c0-22.1,3.5-40.4,32.6-40.4
	c29.3,0,32.6,18.3,32.6,40.4C154,345.4,150.7,363.7,121.4,363.7z"/>
<path class="st0" d="M228.2,361.8h-6.8c-1.2,0-2.1-0.9-2.1-2.2v-54.2c0-9.7-3.5-13-13.2-13c-13,0-26.1,4.1-26.1,4.1v63.1
	c0,1.3-0.7,2.2-1.9,2.2h-7c-1.3,0-2.1-0.9-2.1-2.2v-60.8c0-5.9,0.3-8.5,7.3-11c7.3-2.6,21.2-4.8,30.1-4.8c16.6,0,24,5.4,24,21.1
	v55.5C230.3,360.9,229.4,361.8,228.2,361.8"/>
<path class="st0" d="M325,292.4c-20.2,0-21.1,12.5-21.1,31.1c0,18.5,0.8,30.9,21.1,30.9c20.2,0,21-12.5,21-30.9
	C346,304.8,345.2,292.4,325,292.4 M325,363.7c-29.1,0-32.6-18.3-32.6-40.3c0-22.1,3.5-40.4,32.6-40.4c29.3,0,32.6,18.3,32.6,40.4
	C357.6,345.4,354.3,363.7,325,363.7z"/>
<path class="st0" d="M285.1,353.8c-0.3-0.9-0.8-1.3-1.4-1.2l-0.4,0c-2.4,0.9-6.4,1.7-10.5,1.7c-6.9,0-10.9-1.8-10.9-9.8v-48.8h13.7
	c1.3,0,2.1-0.9,2.1-2.2v-5c0-1.3-0.8-2.2-2.1-2.2H262v-11.7c0-1.3-0.8-2.1-1.9-2.2h-7.2c-1.1,0.1-1.9,0.9-1.9,2.2v11.7h-7.1
	c-1.2,0-2.1,0.9-2.1,2.2v5c0,1.3,0.8,2.2,2.1,2.2h7.1v47.6c0,14.1,6.8,20.4,20,20.4c7.6,0,12.1-1.8,14.7-2.8
	c0.5-0.2,0.9-0.9,0.9-1.5v-0.3L285.1,353.8z"/>
<path class="st0" d="M431,285.5h-7c-1.3,0-2.1,0.9-2.1,2.2v46.4c0,11-1.4,20.4-19.5,20.4c-15.1,0-19.7-6.2-19.7-19.9v-46.7
	c0,0,0,0,0-0.1v-0.1c0,0,0,0,0,0c0-0.2,0-0.5-0.1-0.7c0-0.1-0.1-0.2-0.1-0.3c0-0.1-0.1-0.2-0.1-0.2c-0.4-0.6-0.9-0.9-1.7-0.9h-6.8
	c-1.3,0-2.1,0.9-2.1,2.2v45.7c0,19.3,6.1,30.3,30.7,30.3c28.7,0,30.7-16.1,30.7-30.6v-45.4C433.1,286.4,432.2,285.5,431,285.5"/>
<path class="st0" d="M485.2,293.2c-9.2,0-16.7,0.7-24.6,2.8v63.6c0,1.3-0.7,2.2-2,2.2h-6.9c-1.3,0-2.2-0.7-2.2-1.9v-61.3
	c0-6.4,1.3-8.3,6-10.7c6.1-2.9,18.7-4.8,25.4-4.8h3.5c0.7,0,2,0.3,2,2.2v6.3C486.5,292.5,486.2,293.2,485.2,293.2"/>
<path class="st1" d="M586.8,342.4c-6.6,1.7-13.1,2.2-19.4,1.6l0,0c-2.2-0.2-4.4-0.6-6.6-1.1v-9.5c2.4,0.6,5,1.1,7.5,1.4
	c5.4,0.5,10.9,0.1,16.7-1.4c7.6-1.9,15-2.5,22.3-1.8c4.7,0.4,9.2,1.4,13.7,2.9v-49.6c0-5.6-4.6-10.1-10.1-10.1h-74.5
	c-5.6,0-10.1,4.6-10.1,10.1v74.5c0,5.6,4.6,10.1,10.1,10.1h74.5c5.6,0,10.1-4.5,10.1-10.1v-15.2c-4.7-1.8-9.6-3-14.5-3.4
	C600,340.2,593.5,340.7,586.8,342.4"/>
<path class="st2" d="M607.2,331.6c-7.2-0.7-14.7-0.1-22.3,1.8c-5.7,1.5-11.3,1.9-16.7,1.4c-2.5-0.2-5.1-0.7-7.5-1.4v9.5
	c2.2,0.5,4.4,0.9,6.6,1.1l0,0c6.3,0.6,12.8,0.1,19.4-1.6c6.7-1.7,13.2-2.2,19.5-1.6c5,0.5,9.8,1.6,14.5,3.4v-9.7
	C616.4,333,611.9,332,607.2,331.6"/>
</svg>
