<svg id="Capa_1" data-name="Capa 1" xmlns="http://www.w3.org/2000/svg" viewBox="0 0 49.54 49.48"><defs><style>.cls-1{fill:#fff;stroke:#fff;stroke-miterlimit:10;stroke-width:2px;}</style></defs><title>crescent-moon-svgrepo-com</title><path class="cls-1" d="M25,47.51A25,25,0,0,1,13.87.13a1,1,0,0,1,1.34,1.34A22.75,22.75,0,0,0,12.86,11.6a23,23,0,0,0,23,23,22.67,22.67,0,0,0,10.23-2.41,1,1,0,0,1,1.15.19,1,1,0,0,1,.2,1.15A24.86,24.86,0,0,1,25,47.51ZM12.25,3.37A23,23,0,0,0,25,45.51,22.83,22.83,0,0,0,44.2,35.17a24.7,24.7,0,0,1-8.34,1.43A25,25,0,0,1,12.25,3.37Z" transform="translate(1 0.97)"/></svg>